<svg xmlns="http://www.w3.org/2000/svg" viewBox="0 0 64 64">
  <defs>
    <linearGradient id="bg" x1="8" x2="56" y1="8" y2="56" gradientUnits="userSpaceOnUse">
      <stop stop-color="#3b82f6"/>
      <stop offset="0.58" stop-color="#1f2937"/>
      <stop offset="1" stop-color="#52525b"/>
    </linearGradient>
    <linearGradient id="mark" x1="18" x2="48" y1="18" y2="48" gradientUnits="userSpaceOnUse">
      <stop stop-color="#ffffff"/>
      <stop offset="1" stop-color="#dbeafe"/>
    </linearGradient>
  </defs>
  <rect width="64" height="64" rx="14" fill="#09090b"/>
  <path d="M14 18c0-2.2 1.8-4 4-4h28c2.2 0 4 1.8 4 4v28c0 2.2-1.8 4-4 4H18c-2.2 0-4-1.8-4-4V18Z" fill="url(#bg)" opacity="0.92"/>
  <path d="M24 22h9.3c6.1 0 10.7 4.2 10.7 10s-4.6 10-10.7 10H24V22Zm5.1 4.6v10.8h4.1c3.2 0 5.5-2.2 5.5-5.4s-2.3-5.4-5.5-5.4h-4.1Z" fill="url(#mark)"/>
  <path d="M21 45h23" stroke="#f8fafc" stroke-linecap="round" stroke-width="3.4"/>
</svg>
